<svg xmlns="http://www.w3.org/2000/svg" width="37" height="30" viewBox="0 0 37 30">
  <defs>
    <style>
      .cls-1 {
        fill: #22252c;
        fill-rule: evenodd;
      }
    </style>
  </defs>
  <path id="Forme_6" data-name="Forme 6" class="cls-1" d="M1125.25,375.951a0.518,0.518,0,0,0-.41-0.322,0.513,0.513,0,0,0-.48.212,4.569,4.569,0,0,1-2.49,1.564,9.257,9.257,0,0,0-2.51,1.214,3.2,3.2,0,0,0-1.55,3.3l-0.03.04a16.651,16.651,0,0,0-1.7-2.095,15.876,15.876,0,0,0-10.82-4.852c-0.18-.007-0.36-0.01-0.54-0.01a15.882,15.882,0,0,0-15.55,18.071c0.06,0.372.13,0.749,0.22,1.118,1.11,4.9,3.95,8.62,7.8,10.217a7.383,7.383,0,0,0,2.84.594,6.324,6.324,0,0,0,5.58-3.414,7.532,7.532,0,0,0,.89-2.537,6.293,6.293,0,0,0-.03-1.5,5.527,5.527,0,0,1-.02-1.463,1.954,1.954,0,0,1,2.06-1.758,3.136,3.136,0,0,1,.96.155c-0.38.694-.72,1.356-1.02,1.971a19.775,19.775,0,0,0-1.31,3.2c-0.14.508-.52,1.859,0.4,2.5a1.38,1.38,0,0,0,1.05.2c0.35-.065,1.4-0.261,4.4-3.671,0.8-.916,1.67-1.975,2.58-3.149a6.968,6.968,0,0,0,4.61-4.972,7.37,7.37,0,0,0,.15-1.78c0.87-1.346,1.64-2.6,2.41-3.951,0.01-.026.03-0.054,0.04-0.082a4.213,4.213,0,0,0,2.64-2.387,8.1,8.1,0,0,0-.17-6.409h0Zm-12.58,8.387a2.191,2.191,0,1,1-1.85-3.357,2.2,2.2,0,0,1,1.17.338,2.144,2.144,0,0,1,.96,1.367,2.18,2.18,0,0,1-.28,1.652h0Zm2.85,3.967c1.1-1.631,2.28-3.252,3.39-4.694a5.968,5.968,0,0,0,.6.473,4.544,4.544,0,0,0,1.13.578c-0.94,1.605-1.95,3.2-3.18,5a83.2,83.2,0,0,1-5.88,7.739,23.238,23.238,0,0,1-2.54,2.553,22.829,22.829,0,0,1,1.44-3.316,84.037,84.037,0,0,1,5.04-8.329h0Zm-19.45-.014a2.19,2.19,0,1,1,0-4.38,2.21,2.21,0,0,1,1.17.337,2.192,2.192,0,0,1-1.17,4.043h0Zm-2.3,4.821a2.191,2.191,0,1,1-.28,1.652,2.181,2.181,0,0,1,.28-1.652h0Zm7.02-13a2.165,2.165,0,0,1,1.85-1.024,2.189,2.189,0,1,1-2.14,2.675,2.181,2.181,0,0,1,.29-1.651h0Zm0,0" transform="translate(-1089 -375)"/>
</svg>
