<svg xmlns="http://www.w3.org/2000/svg" width="20" height="21" viewBox="0 0 20 21">
  <defs>
    <style>
      .cls-1 {
        fill: #fff;
        fill-rule: evenodd;
      }
    </style>
  </defs>
  <path id="Forme_8" data-name="Forme 8" class="cls-1" d="M986.22,603.385v4.8H971.774v-4.8H969v6.206a1.4,1.4,0,0,0,1.39,1.409h17.218a1.4,1.4,0,0,0,1.39-1.409v-6.206H986.22Zm0,0-7.476-.475-3.974-4.882s-0.606-.578.051-0.578h2.24v-7.105s-0.092-.345.424-0.345h3.151a0.308,0.308,0,0,1,.364.291V597.3h2.067c0.795,0,.2.606,0.2,0.606s-3.381,4.563-3.856,5.042a0.436,0.436,0,0,1-.663-0.041h0Zm0,0" transform="translate(-969 -590)"/>
</svg>
