<svg xmlns="http://www.w3.org/2000/svg" width="23" height="23" viewBox="0 0 23 23">
  <defs>
    <style>
      .cls-1 {
        fill: #fff;
        fill-rule: evenodd;
      }
    </style>
  </defs>
  <path id="Forme_7" data-name="Forme 7" class="cls-1" d="M764.774,603.617a4.2,4.2,0,0,0-3.3,1.605l-7.182-3.639a4.114,4.114,0,0,0,.16-1.083,4.026,4.026,0,0,0-.19-1.175l7.144-3.623a4.168,4.168,0,1,0-.856-2.509,4.109,4.109,0,0,0,.161,1.083l-7.176,3.639A4.191,4.191,0,1,0,753.6,603l7.145,3.623a4.084,4.084,0,0,0-.195,1.18,4.227,4.227,0,1,0,4.227-4.19h0Zm0,0" transform="translate(-746 -589)"/>
</svg>
