<svg xmlns="http://www.w3.org/2000/svg" xmlns:xlink="http://www.w3.org/1999/xlink" width="45" height="33.375" viewBox="0 0 45 33.375">
  <defs>
    <style>
      .cls-1 {
        fill: #fff;
        fill-rule: evenodd;
        filter: url(#filter);
      }
    </style>
    <filter id="filter" x="827" y="217.625" width="45" height="33.375" filterUnits="userSpaceOnUse">
      <feOffset result="offset" dx="0.157" dy="2.996" in="SourceAlpha"/>
      <feGaussianBlur result="blur" stdDeviation="1"/>
      <feFlood result="flood" flood-opacity="0.33"/>
      <feComposite result="composite" operator="in" in2="blur"/>
      <feBlend result="blend" in="SourceGraphic"/>
    </filter>
  </defs>
  <path id="Forme_3_copie" data-name="Forme 3 copie" class="cls-1" d="M838.093,218.049l-7.537,9.565a1.492,1.492,0,0,0,1.092,2.557h4.72v13.2a1.522,1.522,0,0,0,1.545,1.5h2.544a1.522,1.522,0,0,0,1.545-1.5v-13.2h4.72a1.492,1.492,0,0,0,1.092-2.557l-7.537-9.565A1.578,1.578,0,0,0,838.093,218.049Zm1.092-1.059,21.727,27.436,7.548-9.566a1.492,1.492,0,0,0-1.094-2.557h-4.727V219.108a1.524,1.524,0,0,0-1.547-1.5h-2.548a1.524,1.524,0,0,0-1.547,1.5V232.3H852.27a1.493,1.493,0,0,0-1.094,2.557l7.548,9.566A1.583,1.583,0,0,0,860.912,244.426Zm-1.094,1.059" transform="translate(-827 -217.625)"/>
</svg>
